HIERARCHY
ROOT HipCenter
{
    OFFSET 0.0 0.0 -0.0
    CHANNELS 6 Xposition Yposition Zposition Zrotation Xrotation Yrotation
    JOINT Spine
    {
        OFFSET 0.0 0.11590848863124847 0.0
        CHANNELS 3 Zrotation Xrotation Yrotation
        JOINT ShoulderCenter
        {
            OFFSET 0.0 0.33247271180152893 0.0
            CHANNELS 3 Zrotation Xrotation Yrotation
            JOINT LeftShoulder
            {
                OFFSET 0.18772348761558533 0.0 0.0
                CHANNELS 3 Zrotation Xrotation Yrotation
                JOINT LeftElbow
                {
                    OFFSET 0.2928994297981262 0.0 0.0
                    CHANNELS 3 Zrotation Xrotation Yrotation
                    JOINT LeftWrist
                    {
                        OFFSET 0.3032001256942749 0.0 0.0
                        CHANNELS 3 Zrotation Xrotation Yrotation
                        JOINT LeftHand
                        {
                            OFFSET 0.036269381642341614 0.0 0.0
                            CHANNELS 3 Zrotation Xrotation Yrotation
                            End Site
                            {
                                OFFSET 0.014507753774523735 0.0 0.0
                            }
                        }
                    }
                }
            }
            JOINT RightShoulder
            {
                OFFSET -0.18772348761558533 0.0 0.0
                CHANNELS 3 Zrotation Xrotation Yrotation
                JOINT RightElbow
                {
                    OFFSET -0.2928994297981262 0.0 0.0
                    CHANNELS 3 Zrotation Xrotation Yrotation
                    JOINT RightWrist
                    {
                        OFFSET -0.3032001256942749 0.0 0.0
                        CHANNELS 3 Zrotation Xrotation Yrotation
                        JOINT RightHand
                        {
                            OFFSET -0.036269381642341614 0.0 0.0
                            CHANNELS 3 Zrotation Xrotation Yrotation
                            End Site
                            {
                                OFFSET -0.014507753774523735 0.0 0.0
                            }
                        }
                    }
                }
            }
            End Site
            {
                OFFSET 0.0 0.1329890936613083 0.0
            }
        }
    }
    JOINT LeftHip
    {
        OFFSET 0.13845577836036682 0.0 0.0
        CHANNELS 3 Zrotation Xrotation Yrotation
        JOINT LeftKnee
        {
            OFFSET 0.0 -0.4246312379837036 0.0
            CHANNELS 3 Zrotation Xrotation Yrotation
            JOINT LeftAnkle
            {
                OFFSET 0.0 -0.4313071370124817 0.0
                CHANNELS 3 Zrotation Xrotation Yrotation
                JOINT LeftFoot
                {
                    OFFSET 0.0 -0.13055050373077393 0.0
                    CHANNELS 3 Zrotation Xrotation Yrotation
                    End Site
                    {
                        OFFSET 0.0 0.0 0.05222021043300629
                    }
                }
            }
        }
    }
    JOINT RightHip
    {
        OFFSET -0.13845577836036682 0.0 0.0
        CHANNELS 3 Zrotation Xrotation Yrotation
        JOINT RightKnee
        {
            OFFSET 0.0 -0.4246312379837036 0.0
            CHANNELS 3 Zrotation Xrotation Yrotation
            JOINT RightAnkle
            {
                OFFSET 0.0 -0.4313071370124817 0.0
                CHANNELS 3 Zrotation Xrotation Yrotation
                JOINT RightFoot
                {
                    OFFSET 0.0 -0.13055050373077393 0.0
                    CHANNELS 3 Zrotation Xrotation Yrotation
                    End Site
                    {
                        OFFSET 0.0 0.0 0.05222021043300629
                    }
                }
            }
        }
    }
}
MOTION
Frames: 5
Frame Time: 0.03333333333333333
0.04100000113248825 -0.8389999866485596 -0.9470000267028809 49.6986859974116 26.656660404269996 158.2876814049147 5.40418204621797 5.70417248562462 0.4122922994311613 9.517378870518944e-07 3.54776329186354e-06 -8.215486559235986 106.72400627832933 15.509440218280371 175.34552131864854 -9.587557879821267e-07 -1.232930617734792e-06 68.73678213793744 2.4560329398125004e-07 -58.04362997713651 31.77970839358142 4.472655020808071e-16 7.951386703658792e-16 -2.478596324031139e-15 -119.1189237875358 28.46356571169825 133.7946881566322 -2.41166518831099e-07 -1.9199491326146825e-06 -85.8385632584762 4.374360801812293e-06 -79.89688915618424 -34.36588764558489 -8.995006208514008e-15 -1.5902773407317584e-15 -1.2483078749173104e-31 111.81107386443445 -71.87550732231793 161.02647793939198 137.7429126297017 50.36778464087275 179.21381898354102 80.61235997062617 -32.20113837252802 71.62381375410499 0.0 0.0 6.3611093629270335e-15 -97.68046030718124 -20.591187341968364 150.63883081898453 -134.30129770377255 2.118603001181884 179.55701829963198 -63.755182467587765 -4.622847925738373 -17.37937455342183 -9.14409470920761e-15 0.0 0.0
0.05299999937415123 -0.8100000023841858 -0.9900000095367432 45.73451339610595 18.073069148733488 169.62266091671088 5.169744222262825 5.6203806186706045 -0.13364133529539948 1.857134596387803e-06 1.8368997368839346e-06 -5.776931652423092 106.69962207726451 12.978149980447752 -178.01808397442358 2.016552022219822e-06 -2.6891129161909073e-07 52.221290508550666 2.0945320009177408e-06 -28.298160170762426 33.97648180216794 -6.3611093629270335e-15 3.1805546814635168e-15 1.7655625192200634e-31 -122.18885248939661 36.35835691130853 132.7469459378998 3.8964800697769606e-07 8.80736981766982e-07 -85.99858599535607 2.2039943396821942e-05 -82.61187133976769 -34.09642858501507 -9.939233379573493e-15 -2.7586914362813492e-31 3.1805546814635176e-15 115.38297414306504 -66.87704556022781 174.20667529071568 143.78868140086968 49.725153111383435 173.66318729111572 84.57584027190818 -42.24676207748863 74.20687536280275 -9.54166404439055e-15 5.29668755766019e-31 -6.3611093629270335e-15 -107.79369948422729 -29.071770959452067 151.96943854054769 -128.17218793912969 7.650088955849204 177.90124874129074 -66.48608845436065 -10.245888071050711 -50.77029541213064 -2.3854160110976376e-15 6.620859447075238e-32 -3.1805546814635168e-15
0.06499999761581421 -0.7770000100135803 -1.0290000438690186 43.585571395576544 9.414807995000594 179.56223501191604 5.277367811064094 6.144501721387163 -0.7574902763162383 7.149351766654838e-07 3.0059038929e-07 -4.970389196747002 105.9689700361975 9.479083572973089 -170.78816859799332 2.382436377712477e-06 -9.504613660027075e-08 45.52449461982807 1.6013097353021103e-06 -11.05211039256892 43.867777638597914 3.180554681463516e-15 4.4139062980501586e-32 1.590277340731758e-15 -122.78919115156182 40.85934351669127 129.00339387924492 -4.521678921231424e-06 1.8165798621722212e-06 -85.31116657757622 -2.238189345830802e-05 -86.49748223758304 -35.256866303467305 -6.758678698109974e-15 0.0 0.0 119.6203649659568 -62.25444725295162 -172.74625423953475 147.70655752088098 45.99513973803777 171.14640287087963 83.78788790839936 -44.76800564824938 69.61181825812534 6.3611093629270335e-15 -3.531125038440127e-31 -6.3611093629270335e-15 -120.89039386585969 -33.11804985554787 149.56199454085623 -121.86679253630015 12.361787162730204 175.04945935780674 -66.18466326653801 -17.30478072047157 -82.23269877567242 1.5902773407317584e-15 0.0 0.0
0.07500000298023224 -0.7400000095367432 -1.0679999589920044 42.9047386893437 0.493697681389797 -173.06421707599665 5.126025211871574 5.609535059734879 -1.0337690995933129 1.6572204475506423e-06 -3.5249865544830405e-07 -3.4621285188534388 106.60828835518757 4.944462476931892 -165.0698658179352 4.880176777973947e-07 1.3632673407265946e-06 46.343915445806864 -5.436020192801254e-06 -17.262259230830093 39.08732126953993 3.1805546814635168e-15 1.3241718894150476e-31 4.770832022195275e-15 -124.2229235782877 42.537824024039764 125.48138507033244 1.0720628889081878e-06 1.5257653509393182e-06 -82.77018655634505 5.018588424748195e-06 -84.83337164036304 -34.63444867260652 2.3854160110976384e-15 7.951386703658794e-16 -1.6552148617688095e-32 121.05580753906263 -56.899999165229836 -163.30234658910274 151.93718356947463 43.03377977267362 167.73971933570928 83.73204142783817 -43.1501308694247 63.16932633590485 0.0 0.0 3.1805546814635168e-15 -135.00148725130273 -33.99420609154044 144.39600385136245 -114.89621314495038 17.0104576499514 169.70910798811485 -66.18277282435474 -27.678811131334097 -103.70990110882484 -7.951386703658792e-16 -6.3611093629270335e-15 -4.4139062980501586e-32
0.0820000022649765 -0.699999988079071 -1.1119999885559082 43.58557758892587 -6.472633125949333 -167.38108508107254 5.157245756863895 5.764014605603685 -1.0424404300380279 2.5477864173021096e-07 -2.3580756536505467e-06 -2.0498636058155304 108.03574578700122 3.4669619514769834 -164.48435733173312 -2.46936942498894e-06 9.631219075239806e-07 49.840300259997896 9.925981989241092e-07 -12.072538498753488 40.97959127590638 -9.54166404439055e-15 -6.3611093629270335e-15 6.361109362927033e-15 -128.5100786591605 42.09468093979989 125.11598458388079 8.960787223425081e-07 -2.982850613708998e-06 -80.00101425388706 -3.789042336482248e-05 -88.71521721886687 -33.34085345193604 -1.987846675914698e-15 3.975693351829396e-16 1.1927080055488188e-15 122.69371612716249 -54.08728535375709 -159.47311788458381 155.9458508470917 40.824557927711524 164.5142872169283 84.52248632661991 -44.83106792599804 59.37797785353571 6.3611093629270335e-15 6.3611093629270335e-15 6.3611093629270335e-15 -145.47879116165126 -32.4246861743682 139.26702293181089 -108.02824295552337 22.419198380936514 159.6858483725886 -61.50629713190262 -36.672965710726444 -108.94664684761297 -5.963540027744094e-16 0.0 0.0
